<?xml version="1.0" encoding="UTF-8" standalone="no"?>
<!-- Created with Inkscape (http://www.inkscape.org/) -->

<svg
   xmlns:dc="http://purl.org/dc/elements/1.1/"
   xmlns:cc="http://creativecommons.org/ns#"
   xmlns:rdf="http://www.w3.org/1999/02/22-rdf-syntax-ns#"
   xmlns:svg="http://www.w3.org/2000/svg"
   xmlns="http://www.w3.org/2000/svg"
   xmlns:sodipodi="http://sodipodi.sourceforge.net/DTD/sodipodi-0.dtd"
   xmlns:inkscape="http://www.inkscape.org/namespaces/inkscape"
   width="134.625"
   height="124"
   id="svg2"
   version="1.1"
   inkscape:version="0.92.4 (5da689c313, 2019-01-14)"
   sodipodi:docname="vicstories.svg">
  <defs
     id="defs4" />
  <sodipodi:namedview
     id="base"
     pagecolor="#ffffff"
     bordercolor="#666666"
     borderopacity="1.0"
     inkscape:pageopacity="0.0"
     inkscape:pageshadow="2"
     inkscape:zoom="3.6139462"
     inkscape:cx="105.77461"
     inkscape:cy="72.911987"
     inkscape:document-units="px"
     inkscape:current-layer="layer1"
     showgrid="false"
     inkscape:window-width="1920"
     inkscape:window-height="1046"
     inkscape:window-x="-11"
     inkscape:window-y="-11"
     inkscape:window-maximized="1"
     fit-margin-top="0"
     fit-margin-left="0"
     fit-margin-right="0"
     fit-margin-bottom="0" />
  <metadata
     id="metadata7">
    <rdf:RDF>
      <cc:Work
         rdf:about="">
        <dc:format>image/svg+xml</dc:format>
        <dc:type
           rdf:resource="http://purl.org/dc/dcmitype/StillImage" />
        <dc:title />
      </cc:Work>
    </rdf:RDF>
  </metadata>
  <g
     inkscape:label="Layer 1"
     inkscape:groupmode="layer"
     id="layer1"
     transform="translate(0,-928.375)">
    <path
       style="fill:#858481;fill-rule:evenodd;stroke:none"
       d="m 0,928.375 0,124 134.625,0 0,-124 -134.625,0 z m 6.96875,6.34375 2.84375,0 c 0.981496,0 1.75,0.79975 1.75,1.78125 l 0,6.375 c 0,0.9815 -0.768504,1.78125 -1.75,1.78125 l -2.84375,0 c -0.9814961,0 -1.78125,-0.79975 -1.78125,-1.78125 l 0,-6.375 c 0,-0.9815 0.7997539,-1.78125 1.78125,-1.78125 z m 16.84375,0 2.8125,0 c 0.981496,0 1.78125,0.79975 1.78125,1.78125 l 0,6.375 c 0,0.9815 -0.799754,1.78125 -1.78125,1.78125 l -2.8125,0 c -0.981496,0 -1.78125,-0.79975 -1.78125,-1.78125 l 0,-6.375 c 0,-0.9815 0.799754,-1.78125 1.78125,-1.78125 z m 16.8125,0 2.84375,0 c 0.981496,0 1.78125,0.79975 1.78125,1.78125 l 0,6.375 c 0,0.9815 -0.799754,1.78125 -1.78125,1.78125 l -2.84375,0 c -0.981496,0 -1.75,-0.79975 -1.75,-1.78125 l 0,-6.375 c 0,-0.9815 0.768504,-1.78125 1.75,-1.78125 z m 16.84375,0 2.84375,0 c 0.981496,0 1.78125,0.79975 1.78125,1.78125 l 0,6.375 c 0,0.9815 -0.799754,1.78125 -1.78125,1.78125 l -2.84375,0 c -0.981496,0 -1.75,-0.79975 -1.75,-1.78125 l 0,-6.375 c 0,-0.9815 0.768504,-1.78125 1.75,-1.78125 z m 16.84375,0 2.84375,0 c 0.981496,0 1.75,0.79975 1.75,1.78125 l 0,6.375 c 0,0.9815 -0.768504,1.78125 -1.75,1.78125 l -2.84375,0 c -0.981496,0 -1.78125,-0.79975 -1.78125,-1.78125 l 0,-6.375 c 0,-0.9815 0.799754,-1.78125 1.78125,-1.78125 z m 16.84375,0 2.84375,0 c 0.981496,0 1.75,0.79975 1.75,1.78125 l 0,6.375 c 0,0.9815 -0.768504,1.78125 -1.75,1.78125 l -2.84375,0 c -0.981496,0 -1.78125,-0.79975 -1.78125,-1.78125 l 0,-6.375 c 0,-0.9815 0.799754,-1.78125 1.78125,-1.78125 z m 16.84375,0 2.8125,0 c 0.9815,0 1.78125,0.79975 1.78125,1.78125 l 0,6.375 c 0,0.9815 -0.79975,1.78125 -1.78125,1.78125 l -2.8125,0 c -0.9815,0 -1.78125,-0.79975 -1.78125,-1.78125 l 0,-6.375 c 0,-0.9815 0.79975,-1.78125 1.78125,-1.78125 z m 16.8125,0 2.84375,0 c 0.9815,0 1.78125,0.79975 1.78125,1.78125 l 0,6.375 c 0,0.9815 -0.79975,1.78125 -1.78125,1.78125 l -2.84375,0 c -0.9815,0 -1.75,-0.79975 -1.75,-1.78125 l 0,-6.375 c 0,-0.9815 0.7685,-1.78125 1.75,-1.78125 z m -121.28125,13.125 127.5625,0 0,85.03125 -127.5625,0 0,-85.03125 z m 2.875,88.93745 2.84375,0 c 0.981496,0 1.78125,0.7686 1.78125,1.75 l 0,6.375 c 0,0.9815 -0.799754,1.7813 -1.78125,1.7813 l -2.84375,0 c -0.9814961,0 -1.75,-0.7998 -1.75,-1.7813 l 0,-6.375 c 0,-0.9814 0.7685039,-1.75 1.75,-1.75 z m 16.84375,0 2.84375,0 c 0.981496,0 1.78125,0.7686 1.78125,1.75 l 0,6.375 c 0,0.9816 -0.799754,1.7813 -1.78125,1.7813 l -2.84375,0 c -0.981496,0 -1.75,-0.7997 -1.75,-1.7813 l 0,-6.375 c 0,-0.9813 0.768504,-1.75 1.75,-1.75 z m 16.84375,0 2.84375,0 c 0.981496,0 1.78125,0.7686 1.78125,1.75 l 0,6.375 c 0,0.9817 -0.799754,1.7813 -1.78125,1.7813 l -2.84375,0 c -0.981496,0 -1.78125,-0.7996 -1.78125,-1.7813 l 0,-6.375 c 0,-0.9812 0.799754,-1.75 1.78125,-1.75 z m 16.84375,0 2.84375,0 c 0.981496,0 1.75,0.7686 1.75,1.75 l 0,6.375 c 0,0.9818 -0.768504,1.7813 -1.75,1.7813 l -2.84375,0 c -0.981496,0 -1.78125,-0.7996 -1.78125,-1.7813 l 0,-6.375 c 0,-0.9811 0.799754,-1.75 1.78125,-1.75 z m 16.84375,0 2.8125,0 c 0.981496,0 1.78125,0.7686 1.78125,1.75 l 0,6.375 c 0,0.9819 -0.799754,1.7813 -1.78125,1.7813 l -2.8125,0 c -0.981496,0 -1.78125,-0.7996 -1.78125,-1.7813 l 0,-6.375 c 0,-0.981 0.799754,-1.75 1.78125,-1.75 z m 16.84375,0 2.8125,0 c 0.981496,0 1.78125,0.7686 1.78125,1.75 l 0,6.375 c 0,0.9819 -0.799754,1.7813 -1.78125,1.7813 l -2.8125,0 c -0.981496,0 -1.78125,-0.7996 -1.78125,-1.7813 l 0,-6.375 c 0,-0.9809 0.799754,-1.75 1.78125,-1.75 z m 16.8125,0 2.84375,0 c 0.9815,0 1.78125,0.7686 1.78125,1.75 l 0,6.375 c 0,0.9819 -0.79975,1.7813 -1.78125,1.7813 l -2.84375,0 c -0.9815,0 -1.75,-0.7996 -1.75,-1.7813 l 0,-6.375 c 0,-0.9808 0.7685,-1.75 1.75,-1.75 z m 16.84375,0 2.84375,0 c 0.9815,0 1.78125,0.7686 1.78125,1.75 l 0,6.375 c 0,0.9819 -0.79975,1.7813 -1.78125,1.7813 l -2.84375,0 c -0.9815,0 -1.78125,-0.7996 -1.78125,-1.7813 l 0,-6.375 c 0,-0.9807 0.79975,-1.75 1.78125,-1.75 z"
       id="rect10"
       inkscape:connector-curvature="0" />
    <flowRoot
       xml:space="preserve"
       id="flowRoot3735"
       style="fill:black;fill-opacity:1;stroke:none;font-family:sans-serif;font-style:normal;font-weight:normal;font-size:32px;line-height:1.25;letter-spacing:0px;word-spacing:0px;"><flowRegion
         id="flowRegion3737"
         style="font-size:32px;"><rect
           id="rect3739"
           width="104.87151"
           height="66.962814"
           x="15.495526"
           y="25.769428"
           style="font-size:32px;" /></flowRegion><flowPara
         id="flowPara3741" /></flowRoot>    <g
       id="g835">
      <g
         aria-label="Victoria
"
         transform="translate(3.8738814,929.20511)"
         style="font-style:normal;font-weight:normal;font-size:40px;line-height:1.25;font-family:sans-serif;letter-spacing:0px;word-spacing:0px;fill:#ffffff;fill-opacity:1;stroke:none;image-rendering:auto"
         id="flowRoot4550">
        <path
           d="m 25,32.696338 -8.46875,23.265625 h -4.125 L 3.9375,32.696338 H 7.25 l 7.296875,20.46875 7.296875,-20.46875 z"
           style="font-size:32px"
           id="path827" />
        <path
           d="m 31.453125,35.586963 h -3.3125 v -3.046875 h 3.3125 z m -0.1875,20.375 h -2.9375 V 38.508838 h 2.9375 z"
           style="font-size:32px"
           id="path829" />
        <path
           d="m 50.015625,54.868213 q -1.46875,0.703125 -2.796875,1.09375 -1.3125,0.390625 -2.796875,0.390625 -1.890625,0 -3.46875,-0.546875 -1.578125,-0.5625 -2.703125,-1.6875 -1.140625,-1.125 -1.765625,-2.84375 -0.625,-1.71875 -0.625,-4.015625 0,-4.28125 2.34375,-6.71875 2.359375,-2.4375 6.21875,-2.4375 1.5,0 2.9375,0.421875 1.453125,0.421875 2.65625,1.03125 v 3.265625 h -0.15625 q -1.34375,-1.046875 -2.78125,-1.609375 -1.421875,-0.5625 -2.78125,-0.5625 -2.5,0 -3.953125,1.6875 -1.4375,1.671875 -1.4375,4.921875 0,3.15625 1.40625,4.859375 1.421875,1.6875 3.984375,1.6875 0.890625,0 1.8125,-0.234375 0.921875,-0.234375 1.65625,-0.609375 0.640625,-0.328125 1.203125,-0.6875 0.5625,-0.375 0.890625,-0.640625 h 0.15625 z"
           style="font-size:32px"
           id="path831" />
        <path
           d="m 62.859375,55.805713 q -0.828125,0.21875 -1.8125,0.359375 -0.96875,0.140625 -1.734375,0.140625 -2.671875,0 -4.0625,-1.4375 -1.390625,-1.4375 -1.390625,-4.609375 v -9.28125 H 51.875 v -2.46875 h 1.984375 v -5.015625 h 2.9375 v 5.015625 h 6.0625 v 2.46875 h -6.0625 v 7.953125 q 0,1.375 0.0625,2.15625 0.0625,0.765625 0.4375,1.4375 0.34375,0.625 0.9375,0.921875 0.609375,0.28125 1.84375,0.28125 0.71875,0 1.5,-0.203125 0.78125,-0.21875 1.125,-0.359375 h 0.15625 z"
           style="font-size:32px"
           id="path833" />
        <path
           d="m 81.296875,47.243213 q 0,4.265625 -2.1875,6.734375 -2.1875,2.46875 -5.859375,2.46875 -3.703125,0 -5.890625,-2.46875 -2.171875,-2.46875 -2.171875,-6.734375 0,-4.265625 2.171875,-6.734375 2.1875,-2.484375 5.890625,-2.484375 3.671875,0 5.859375,2.484375 2.1875,2.46875 2.1875,6.734375 z m -3.03125,0 q 0,-3.390625 -1.328125,-5.03125 -1.328125,-1.65625 -3.6875,-1.65625 -2.390625,0 -3.71875,1.65625 -1.3125,1.640625 -1.3125,5.03125 0,3.28125 1.328125,4.984375 1.328125,1.6875 3.703125,1.6875 2.34375,0 3.671875,-1.671875 1.34375,-1.6875 1.34375,-5 z"
           style="font-size:32px"
           id="path835" />
        <path
           d="m 96.75,41.711963 h -0.15625 q -0.65625,-0.15625 -1.28125,-0.21875 -0.609375,-0.07813 -1.453125,-0.07813 -1.359375,0 -2.625,0.609375 -1.265625,0.59375 -2.4375,1.546875 v 12.390625 h -2.9375 V 38.508838 h 2.9375 v 2.578125 q 1.75,-1.40625 3.078125,-1.984375 1.34375,-0.59375 2.734375,-0.59375 0.765625,0 1.109375,0.04687 0.34375,0.03125 1.03125,0.140625 z"
           style="font-size:32px"
           id="path837" />
        <path
           d="m 102.70313,35.586963 h -3.312505 v -3.046875 h 3.312505 z m -0.1875,20.375 H 99.578125 V 38.508838 h 2.937505 z"
           style="font-size:32px"
           id="path839" />
        <path
           d="M 121.92188,55.961963 H 119 v -1.859375 q -0.39062,0.265625 -1.0625,0.75 -0.65625,0.46875 -1.28125,0.75 -0.73437,0.359375 -1.6875,0.59375 -0.95312,0.25 -2.23437,0.25 -2.35938,0 -4,-1.5625 -1.64063,-1.5625 -1.64063,-3.984375 0,-1.984375 0.84375,-3.203125 0.85938,-1.234375 2.4375,-1.9375 1.59375,-0.703125 3.82813,-0.953125 2.23437,-0.25 4.79687,-0.375 v -0.453125 q 0,-1 -0.35937,-1.65625 -0.34375,-0.65625 -1,-1.03125 -0.625,-0.359375 -1.5,-0.484375 -0.875,-0.125 -1.82813,-0.125 -1.15625,0 -2.57812,0.3125 -1.42188,0.296875 -2.9375,0.875 h -0.15625 v -2.984375 q 0.85937,-0.234375 2.48437,-0.515625 1.625,-0.28125 3.20313,-0.28125 1.84375,0 3.20312,0.3125 1.375,0.296875 2.375,1.03125 0.98438,0.71875 1.5,1.859375 0.51563,1.140625 0.51563,2.828125 z M 119,51.665088 v -4.859375 q -1.34375,0.07813 -3.17187,0.234375 -1.8125,0.15625 -2.875,0.453125 -1.26563,0.359375 -2.04688,1.125 -0.78125,0.75 -0.78125,2.078125 0,1.5 0.90625,2.265625 0.90625,0.75 2.76563,0.75 1.54687,0 2.82812,-0.59375 1.28125,-0.609375 2.375,-1.453125 z"
           style="font-size:32px"
           id="path841" />
      </g>
      <g
         aria-label="Stories"
         style="font-style:normal;font-weight:normal;font-size:40px;line-height:1.25;font-family:sans-serif;letter-spacing:0px;word-spacing:0px;fill:#ffffff;fill-opacity:1;stroke:none"
         id="text4566">
        <path
           d="m 31.376189,1005.8888 q 0,1.3594 -0.640625,2.6875 -0.625,1.3281 -1.765625,2.25 -1.25,1 -2.921875,1.5625 -1.65625,0.5625 -4,0.5625 -2.515625,0 -4.53125,-0.4688 -2,-0.4687 -4.078125,-1.3906 v -3.875 h 0.21875 q 1.765625,1.4688 4.078125,2.2656 2.3125,0.7969 4.34375,0.7969 2.875,0 4.46875,-1.0781 1.609375,-1.0781 1.609375,-2.875 0,-1.5469 -0.765625,-2.2813 -0.75,-0.7343 -2.296875,-1.1406 -1.171875,-0.3125 -2.546875,-0.5156 -1.359375,-0.2031 -2.890625,-0.5156 -3.09375,-0.6563 -4.59375,-2.23441 -1.484375,-1.59375 -1.484375,-4.14062 0,-2.92188 2.46875,-4.78125 2.46875,-1.875 6.265625,-1.875 2.453125,0 4.5,0.46875 2.046875,0.46875 3.625,1.15625 v 3.65625 h -0.21875 q -1.328125,-1.125 -3.5,-1.85938 -2.15625,-0.75 -4.421875,-0.75 -2.484375,0 -4,1.03125 -1.5,1.03125 -1.5,2.65625 0,1.45313 0.75,2.28125 0.75,0.82813 2.640625,1.26563 1,0.21875 2.84375,0.53125 1.84375,0.3125 3.125,0.64062 2.59375,0.68746 3.90625,2.07816 1.3125,1.3906 1.3125,3.8906 z"
           style="font-size:32px"
           id="path844" />
        <path
           d="m 45.173064,1012.3732 q -0.828125,0.2187 -1.8125,0.3593 -0.96875,0.1407 -1.734375,0.1407 -2.671875,0 -4.0625,-1.4375 -1.390625,-1.4375 -1.390625,-4.6094 v -9.28126 h -1.984375 v -2.46875 h 1.984375 v -5.01562 h 2.9375 v 5.01562 h 6.0625 v 2.46875 h -6.0625 v 7.95316 q 0,1.375 0.0625,2.1562 0.0625,0.7656 0.4375,1.4375 0.34375,0.625 0.9375,0.9219 0.609375,0.2812 1.84375,0.2812 0.71875,0 1.5,-0.2031 0.78125,-0.2187 1.125,-0.3594 h 0.15625 z"
           style="font-size:32px"
           id="path846" />
        <path
           d="m 63.610564,1003.8107 q 0,4.2656 -2.1875,6.7343 -2.1875,2.4688 -5.859375,2.4688 -3.703125,0 -5.890625,-2.4688 -2.171875,-2.4687 -2.171875,-6.7343 0,-4.26566 2.171875,-6.73441 2.1875,-2.48437 5.890625,-2.48437 3.671875,0 5.859375,2.48437 2.1875,2.46875 2.1875,6.73441 z m -3.03125,0 q 0,-3.3907 -1.328125,-5.03128 -1.328125,-1.65625 -3.6875,-1.65625 -2.390625,0 -3.71875,1.65625 -1.3125,1.64058 -1.3125,5.03128 0,3.2812 1.328125,4.9843 1.328125,1.6875 3.703125,1.6875 2.34375,0 3.671875,-1.6718 1.34375,-1.6875 1.34375,-5 z"
           style="font-size:32px"
           id="path848" />
        <path
           d="m 79.063689,998.27942 h -0.15625 q -0.65625,-0.15625 -1.28125,-0.21875 -0.609375,-0.0781 -1.453125,-0.0781 -1.359375,0 -2.625,0.60938 -1.265625,0.59375 -2.4375,1.54688 v 12.3906 h -2.9375 v -17.45311 h 2.9375 v 2.57813 q 1.75,-1.40625 3.078125,-1.98438 1.34375,-0.59375 2.734375,-0.59375 0.765625,0 1.109375,0.0469 0.34375,0.0312 1.03125,0.14062 z"
           style="font-size:32px"
           id="path850" />
        <path
           d="m 85.016814,992.15442 h -3.3125 v -3.04688 h 3.3125 z m -0.1875,20.37498 h -2.9375 v -17.45311 h 2.9375 z"
           style="font-size:32px"
           id="path852" />
        <path
           d="M 105.28244,1004.1075 H 92.423064 q 0,1.6094 0.484375,2.8125 0.484375,1.1875 1.328125,1.9532 0.8125,0.75 1.921875,1.125 1.125,0.375 2.46875,0.375 1.781251,0 3.578121,-0.7032 1.8125,-0.7187 2.57813,-1.4062 h 0.15625 v 3.2031 q -1.48438,0.625 -3.03125,1.0469 -1.54688,0.4219 -3.250001,0.4219 -4.34375,0 -6.78125,-2.3438 -2.4375,-2.3594 -2.4375,-6.6875 0,-4.28123 2.328125,-6.79686 2.34375,-2.51562 6.15625,-2.51562 3.531246,0 5.437496,2.0625 1.92188,2.0625 1.92188,5.85938 z m -2.85938,-2.25 q -0.0156,-2.31246 -1.17187,-3.57808 -1.14063,-1.26563 -3.484376,-1.26563 -2.359375,0 -3.765625,1.39063 -1.390625,1.39062 -1.578125,3.45308 z"
           style="font-size:32px"
           id="path854" />
        <path
           d="m 122.20431,1007.4982 q 0,2.3906 -1.98437,3.9218 -1.96875,1.5313 -5.39063,1.5313 -1.9375,0 -3.5625,-0.4531 -1.60937,-0.4688 -2.70312,-1.0157 v -3.2968 h 0.15625 q 1.39062,1.0468 3.09375,1.6718 1.70312,0.6094 3.26562,0.6094 1.9375,0 3.03125,-0.625 1.09375,-0.625 1.09375,-1.9687 0,-1.0313 -0.59375,-1.5625 -0.59375,-0.5313 -2.28125,-0.9063 -0.625,-0.1406 -1.64062,-0.3281 -1,-0.1875 -1.82813,-0.4063 -2.29687,-0.6093 -3.26562,-1.7812 -0.95313,-1.1875 -0.95313,-2.90626 0,-1.07812 0.4375,-2.03125 0.45313,-0.95312 1.35938,-1.70312 0.875,-0.73438 2.21875,-1.15625 1.35937,-0.4375 3.03125,-0.4375 1.5625,0 3.15625,0.39062 1.60937,0.375 2.67187,0.92188 v 3.14062 h -0.15625 q -1.125,-0.82812 -2.73437,-1.39062 -1.60938,-0.57813 -3.15625,-0.57813 -1.60938,0 -2.71875,0.625 -1.10938,0.60938 -1.10938,1.82813 0,1.07808 0.67188,1.62498 0.65625,0.5469 2.125,0.8906 0.8125,0.1875 1.8125,0.375 1.01562,0.1875 1.6875,0.3438 2.04687,0.4687 3.15625,1.6094 1.10937,1.1562 1.10937,3.0625 z"
           style="font-size:32px"
           id="path856" />
      </g>
    </g>
  </g>
</svg>
